<mxfile host="65bd71144e">
    <diagram name="MD-Links API-CLI" id="93haLuahg1Ov3Uhfy_TV">
        <mxGraphModel dx="1170" dy="1136" grid="1" gridSize="10" guides="1" tooltips="1" connect="1" arrows="1" fold="1" page="1" pageScale="1" pageWidth="827" pageHeight="1169" background="#ffffff" math="0" shadow="0">
            <root>
                <mxCell id="0"/>
                <mxCell id="1" parent="0"/>
                <mxCell id="On1AbhgCIfUnlUdx-mSk-45" value="FALSE" style="text;align=center;html=1;verticalAlign=middle;whiteSpace=wrap;rounded=0;fontColor=#000066;strokeColor=#fcfcfc;" parent="1" vertex="1">
                    <mxGeometry x="174" y="740" width="50" height="30" as="geometry"/>
                </mxCell>
                <mxCell id="Y0-RWTtbSj_2u-Xx135a-1" value="INICIO" style="ellipse;whiteSpace=wrap;html=1;fillColor=#f8cecc;strokeColor=#b85450;fontColor=#000066;" parent="1" vertex="1">
                    <mxGeometry x="274.87" y="25" width="90" height="40" as="geometry"/>
                </mxCell>
                <mxCell id="Y0-RWTtbSj_2u-Xx135a-2" value="Ingresa ruta&lt;br&gt;( path, option )" style="shape=parallelogram;perimeter=parallelogramPerimeter;whiteSpace=wrap;html=1;fixedSize=1;fillColor=#d5e8d4;strokeColor=#82b366;fontColor=#000066;" parent="1" vertex="1">
                    <mxGeometry x="259.5" y="95" width="120" height="40" as="geometry"/>
                </mxCell>
                <mxCell id="Y0-RWTtbSj_2u-Xx135a-3" value="" style="endArrow=classic;html=1;rounded=0;fontColor=#000000;strokeColor=#000000;" parent="1" source="Y0-RWTtbSj_2u-Xx135a-1" target="Y0-RWTtbSj_2u-Xx135a-2" edge="1">
                    <mxGeometry width="50" height="50" relative="1" as="geometry">
                        <mxPoint x="295.5" y="195" as="sourcePoint"/>
                        <mxPoint x="345.5" y="145" as="targetPoint"/>
                    </mxGeometry>
                </mxCell>
                <mxCell id="Y0-RWTtbSj_2u-Xx135a-4" value="La Ruta es &lt;br&gt;Valida?" style="rhombus;whiteSpace=wrap;html=1;fillColor=#ffe6cc;strokeColor=#d79b00;fontColor=#000066;" parent="1" vertex="1">
                    <mxGeometry x="266.5" y="175" width="106" height="100" as="geometry"/>
                </mxCell>
                <mxCell id="Y0-RWTtbSj_2u-Xx135a-5" value="" style="endArrow=classic;html=1;rounded=0;fontColor=#000000;strokeColor=#000000;entryX=0.5;entryY=0;entryDx=0;entryDy=0;" parent="1" source="Y0-RWTtbSj_2u-Xx135a-2" target="Y0-RWTtbSj_2u-Xx135a-4" edge="1">
                    <mxGeometry width="50" height="50" relative="1" as="geometry">
                        <mxPoint x="319.5" y="135" as="sourcePoint"/>
                        <mxPoint x="319.5" y="175" as="targetPoint"/>
                    </mxGeometry>
                </mxCell>
                <mxCell id="Y0-RWTtbSj_2u-Xx135a-6" value="" style="endArrow=classic;html=1;rounded=0;fontColor=#000000;strokeColor=#000000;" parent="1" source="Y0-RWTtbSj_2u-Xx135a-4" target="Y0-RWTtbSj_2u-Xx135a-12" edge="1">
                    <mxGeometry width="50" height="50" relative="1" as="geometry">
                        <mxPoint x="380" y="235" as="sourcePoint"/>
                        <mxPoint x="420" y="214" as="targetPoint"/>
                    </mxGeometry>
                </mxCell>
                <mxCell id="Y0-RWTtbSj_2u-Xx135a-7" value="" style="endArrow=classic;html=1;rounded=0;entryX=0.5;entryY=0;entryDx=0;entryDy=0;fontColor=#000066;strokeColor=#000000;" parent="1" source="Y0-RWTtbSj_2u-Xx135a-4" target="Y0-RWTtbSj_2u-Xx135a-15" edge="1">
                    <mxGeometry width="50" height="50" relative="1" as="geometry">
                        <mxPoint x="270" y="225" as="sourcePoint"/>
                        <mxPoint x="250" y="225" as="targetPoint"/>
                    </mxGeometry>
                </mxCell>
                <mxCell id="Y0-RWTtbSj_2u-Xx135a-8" value="NO" style="text;strokeColor=none;align=center;fillColor=none;html=1;verticalAlign=middle;whiteSpace=wrap;rounded=0;fontColor=#000066;" parent="1" vertex="1">
                    <mxGeometry x="290" y="275" width="29" height="30" as="geometry"/>
                </mxCell>
                <mxCell id="Y0-RWTtbSj_2u-Xx135a-9" value="SÍ" style="text;strokeColor=none;align=center;fillColor=none;html=1;verticalAlign=middle;whiteSpace=wrap;rounded=0;fontColor=#000066;" parent="1" vertex="1">
                    <mxGeometry x="371" y="195" width="30" height="30" as="geometry"/>
                </mxCell>
                <mxCell id="Y0-RWTtbSj_2u-Xx135a-10" value="Convertir Ruta Relativa a Absoluta" style="rounded=1;whiteSpace=wrap;html=1;fillColor=#dae8fc;strokeColor=#6c8ebf;fontColor=#000066;" parent="1" vertex="1">
                    <mxGeometry x="630" y="200.5" width="120" height="49" as="geometry"/>
                </mxCell>
                <mxCell id="Y0-RWTtbSj_2u-Xx135a-12" value="¿La Ruta es Absoluta?" style="rhombus;whiteSpace=wrap;html=1;fillColor=#ffe6cc;strokeColor=#d79b00;fontColor=#000066;" parent="1" vertex="1">
                    <mxGeometry x="431" y="174" width="108" height="101" as="geometry"/>
                </mxCell>
                <mxCell id="Y0-RWTtbSj_2u-Xx135a-19" value="" style="endArrow=classic;html=1;rounded=0;startArrow=none;entryX=0.5;entryY=0;entryDx=0;entryDy=0;exitX=0;exitY=0.5;exitDx=0;exitDy=0;fontColor=#000066;strokeColor=#000000;" parent="1" source="Y0-RWTtbSj_2u-Xx135a-15" target="Y0-RWTtbSj_2u-Xx135a-20" edge="1">
                    <mxGeometry width="50" height="50" relative="1" as="geometry">
                        <mxPoint x="150.5" y="230" as="sourcePoint"/>
                        <mxPoint x="160" y="263.5" as="targetPoint"/>
                        <Array as="points">
                            <mxPoint x="92" y="350"/>
                        </Array>
                    </mxGeometry>
                </mxCell>
                <mxCell id="Y0-RWTtbSj_2u-Xx135a-20" value="FIN" style="ellipse;whiteSpace=wrap;html=1;fillColor=#f8cecc;strokeColor=#b85450;fontColor=#000066;" parent="1" vertex="1">
                    <mxGeometry x="42" y="420" width="100" height="50" as="geometry"/>
                </mxCell>
                <mxCell id="Y0-RWTtbSj_2u-Xx135a-21" value="" style="endArrow=classic;html=1;rounded=0;fontColor=#000066;strokeColor=#000000;" parent="1" source="Y0-RWTtbSj_2u-Xx135a-12" target="Y0-RWTtbSj_2u-Xx135a-10" edge="1">
                    <mxGeometry width="50" height="50" relative="1" as="geometry">
                        <mxPoint x="522" y="214" as="sourcePoint"/>
                        <mxPoint x="600" y="215" as="targetPoint"/>
                    </mxGeometry>
                </mxCell>
                <mxCell id="Y0-RWTtbSj_2u-Xx135a-22" value="NO" style="text;strokeColor=none;align=center;fillColor=none;html=1;verticalAlign=middle;whiteSpace=wrap;rounded=0;fontColor=#000066;" parent="1" vertex="1">
                    <mxGeometry x="539" y="195" width="29" height="30" as="geometry"/>
                </mxCell>
                <mxCell id="Y0-RWTtbSj_2u-Xx135a-23" value="" style="endArrow=classic;html=1;rounded=0;exitX=0.5;exitY=1;exitDx=0;exitDy=0;fontColor=#000066;strokeColor=#000000;" parent="1" source="Y0-RWTtbSj_2u-Xx135a-12" target="Y0-RWTtbSj_2u-Xx135a-25" edge="1">
                    <mxGeometry width="50" height="50" relative="1" as="geometry">
                        <mxPoint x="471.5" y="255" as="sourcePoint"/>
                        <mxPoint x="471.5" y="295" as="targetPoint"/>
                    </mxGeometry>
                </mxCell>
                <mxCell id="Y0-RWTtbSj_2u-Xx135a-24" value="SÍ" style="text;strokeColor=none;align=center;fillColor=none;html=1;verticalAlign=middle;whiteSpace=wrap;rounded=0;fontColor=#000066;" parent="1" vertex="1">
                    <mxGeometry x="490" y="275" width="30" height="30" as="geometry"/>
                </mxCell>
                <mxCell id="Y0-RWTtbSj_2u-Xx135a-25" value="¿Es Ruta de&lt;br&gt;un archivo?" style="rhombus;whiteSpace=wrap;html=1;fillColor=#ffe6cc;strokeColor=#d79b00;fontColor=#000066;" parent="1" vertex="1">
                    <mxGeometry x="431.5" y="300" width="108" height="100" as="geometry"/>
                </mxCell>
                <mxCell id="Y0-RWTtbSj_2u-Xx135a-15" value="Muestra mensaje&lt;br&gt;de Error: &lt;br&gt;&quot;No es un archivo.md&quot;" style="shape=parallelogram;perimeter=parallelogramPerimeter;whiteSpace=wrap;html=1;fixedSize=1;fillColor=#d5e8d4;strokeColor=#82b366;fontColor=#000066;" parent="1" vertex="1">
                    <mxGeometry x="240" y="315" width="161" height="70" as="geometry"/>
                </mxCell>
                <mxCell id="Y0-RWTtbSj_2u-Xx135a-29" value="" style="endArrow=classic;html=1;rounded=0;exitX=0;exitY=0.5;exitDx=0;exitDy=0;entryX=1;entryY=0.5;entryDx=0;entryDy=0;fontColor=#000066;strokeColor=#000000;" parent="1" source="Y0-RWTtbSj_2u-Xx135a-25" target="Y0-RWTtbSj_2u-Xx135a-15" edge="1">
                    <mxGeometry width="50" height="50" relative="1" as="geometry">
                        <mxPoint x="539.5" y="349.65999999999997" as="sourcePoint"/>
                        <mxPoint x="590.5" y="349.65999999999997" as="targetPoint"/>
                        <Array as="points"/>
                    </mxGeometry>
                </mxCell>
                <mxCell id="Y0-RWTtbSj_2u-Xx135a-30" value="" style="endArrow=classic;html=1;rounded=0;exitX=0.5;exitY=1;exitDx=0;exitDy=0;fontColor=#000066;strokeColor=#000000;" parent="1" target="Y0-RWTtbSj_2u-Xx135a-40" edge="1">
                    <mxGeometry width="50" height="50" relative="1" as="geometry">
                        <mxPoint x="485.15999999999997" y="400" as="sourcePoint"/>
                        <mxPoint x="485.15999999999997" y="440" as="targetPoint"/>
                    </mxGeometry>
                </mxCell>
                <mxCell id="Y0-RWTtbSj_2u-Xx135a-31" value="SÍ" style="text;strokeColor=none;align=center;fillColor=none;html=1;verticalAlign=middle;whiteSpace=wrap;rounded=0;fontColor=#000066;" parent="1" vertex="1">
                    <mxGeometry x="489.5" y="400" width="30" height="30" as="geometry"/>
                </mxCell>
                <mxCell id="Y0-RWTtbSj_2u-Xx135a-32" value="NO" style="text;strokeColor=none;align=center;fillColor=none;html=1;verticalAlign=middle;whiteSpace=wrap;rounded=0;fontColor=#000066;" parent="1" vertex="1">
                    <mxGeometry x="407.5" y="320" width="29" height="30" as="geometry"/>
                </mxCell>
                <mxCell id="Y0-RWTtbSj_2u-Xx135a-34" value="" style="edgeStyle=segmentEdgeStyle;endArrow=classic;html=1;curved=0;rounded=0;endSize=8;startSize=8;exitX=0.5;exitY=0;exitDx=0;exitDy=0;dashed=1;dashPattern=8 8;fontColor=#000066;strokeColor=#000000;" parent="1" source="Y0-RWTtbSj_2u-Xx135a-10" target="Y0-RWTtbSj_2u-Xx135a-12" edge="1">
                    <mxGeometry width="50" height="50" relative="1" as="geometry">
                        <mxPoint x="595" y="314.97" as="sourcePoint"/>
                        <mxPoint x="485" y="275" as="targetPoint"/>
                        <Array as="points">
                            <mxPoint x="690" y="145"/>
                            <mxPoint x="485" y="145"/>
                        </Array>
                    </mxGeometry>
                </mxCell>
                <mxCell id="Y0-RWTtbSj_2u-Xx135a-40" value="¿Es un&amp;nbsp;archivo&lt;br&gt;.md?" style="rhombus;whiteSpace=wrap;html=1;fillColor=#ffe6cc;strokeColor=#d79b00;fontColor=#000066;" parent="1" vertex="1">
                    <mxGeometry x="431.5" y="440" width="108" height="90" as="geometry"/>
                </mxCell>
                <mxCell id="Y0-RWTtbSj_2u-Xx135a-42" value="Abrir Archivo &lt;br&gt;.md" style="rounded=1;whiteSpace=wrap;html=1;fillColor=#dae8fc;strokeColor=#6c8ebf;fontColor=#000066;" parent="1" vertex="1">
                    <mxGeometry x="435.5" y="560" width="100" height="40" as="geometry"/>
                </mxCell>
                <mxCell id="Y0-RWTtbSj_2u-Xx135a-44" value="Obtener links" style="rounded=1;whiteSpace=wrap;html=1;fillColor=#dae8fc;strokeColor=#6c8ebf;fontColor=#000066;" parent="1" vertex="1">
                    <mxGeometry x="435.5" y="630" width="100" height="40" as="geometry"/>
                </mxCell>
                <mxCell id="Y0-RWTtbSj_2u-Xx135a-45" value="" style="endArrow=classic;html=1;rounded=0;entryX=0.5;entryY=0;entryDx=0;entryDy=0;fontColor=#000066;strokeColor=#000000;" parent="1" source="Y0-RWTtbSj_2u-Xx135a-40" target="Y0-RWTtbSj_2u-Xx135a-42" edge="1">
                    <mxGeometry width="50" height="50" relative="1" as="geometry">
                        <mxPoint x="485.5" y="540" as="sourcePoint"/>
                        <mxPoint x="495.5" y="450" as="targetPoint"/>
                    </mxGeometry>
                </mxCell>
                <mxCell id="Y0-RWTtbSj_2u-Xx135a-46" value="" style="endArrow=classic;html=1;rounded=0;fontColor=#000066;strokeColor=#000000;" parent="1" source="Y0-RWTtbSj_2u-Xx135a-42" edge="1">
                    <mxGeometry width="50" height="50" relative="1" as="geometry">
                        <mxPoint x="485.08000000000004" y="600" as="sourcePoint"/>
                        <mxPoint x="485.5" y="630" as="targetPoint"/>
                    </mxGeometry>
                </mxCell>
                <mxCell id="Y0-RWTtbSj_2u-Xx135a-49" value="" style="endArrow=classic;html=1;rounded=0;entryX=0.5;entryY=0;entryDx=0;entryDy=0;fontColor=#000066;strokeColor=#000000;" parent="1" source="Y0-RWTtbSj_2u-Xx135a-44" target="On1AbhgCIfUnlUdx-mSk-16" edge="1">
                    <mxGeometry width="50" height="50" relative="1" as="geometry">
                        <mxPoint x="484.58000000000004" y="755" as="sourcePoint"/>
                        <mxPoint x="484" y="715" as="targetPoint"/>
                    </mxGeometry>
                </mxCell>
                <mxCell id="Y0-RWTtbSj_2u-Xx135a-54" value="TRUE" style="text;strokeColor=none;align=center;fillColor=none;html=1;verticalAlign=middle;whiteSpace=wrap;rounded=0;fontColor=#000066;" parent="1" vertex="1">
                    <mxGeometry x="287" y="812.18" width="30" height="30" as="geometry"/>
                </mxCell>
                <mxCell id="Y0-RWTtbSj_2u-Xx135a-56" value="SÍ" style="text;strokeColor=none;align=center;fillColor=none;html=1;verticalAlign=middle;whiteSpace=wrap;rounded=0;fontColor=#000066;" parent="1" vertex="1">
                    <mxGeometry x="278.5" y="758.18" width="30" height="30" as="geometry"/>
                </mxCell>
                <mxCell id="Y0-RWTtbSj_2u-Xx135a-60" value="With Option:&lt;br&gt;- - Validate?" style="rhombus;whiteSpace=wrap;html=1;fillColor=#fff2cc;strokeColor=#d6b656;fontColor=#000066;" parent="1" vertex="1">
                    <mxGeometry x="224.5" y="727.77" width="109" height="90" as="geometry"/>
                </mxCell>
                <mxCell id="Y0-RWTtbSj_2u-Xx135a-61" value="" style="endArrow=classic;html=1;rounded=0;entryX=0.5;entryY=0;entryDx=0;entryDy=0;fontColor=#000066;strokeColor=#000000;" parent="1" source="Y0-RWTtbSj_2u-Xx135a-60" target="hgT8orxahQxK94bdxHds-18" edge="1">
                    <mxGeometry width="50" height="50" relative="1" as="geometry">
                        <mxPoint x="278.58000000000004" y="808.18" as="sourcePoint"/>
                        <mxPoint x="279" y="848.18" as="targetPoint"/>
                    </mxGeometry>
                </mxCell>
                <mxCell id="Y0-RWTtbSj_2u-Xx135a-64" value="" style="endArrow=classic;html=1;rounded=0;entryX=0.5;entryY=0;entryDx=0;entryDy=0;fontColor=#000066;strokeColor=#000000;" parent="1" target="Y0-RWTtbSj_2u-Xx135a-60" edge="1">
                    <mxGeometry width="50" height="50" relative="1" as="geometry">
                        <mxPoint x="280" y="700" as="sourcePoint"/>
                        <mxPoint x="383.12" y="745" as="targetPoint"/>
                        <Array as="points"/>
                    </mxGeometry>
                </mxCell>
                <mxCell id="Y0-RWTtbSj_2u-Xx135a-78" value="" style="edgeStyle=segmentEdgeStyle;endArrow=classic;html=1;curved=0;rounded=0;endSize=8;startSize=8;exitX=0;exitY=0.5;exitDx=0;exitDy=0;entryX=0.5;entryY=1;entryDx=0;entryDy=0;fontColor=#000066;strokeColor=#000000;" parent="1" source="On1AbhgCIfUnlUdx-mSk-41" target="Y0-RWTtbSj_2u-Xx135a-20" edge="1">
                    <mxGeometry width="50" height="50" relative="1" as="geometry">
                        <mxPoint x="130" y="1055" as="sourcePoint"/>
                        <mxPoint x="80" y="585" as="targetPoint"/>
                        <Array as="points">
                            <mxPoint x="92" y="1034"/>
                        </Array>
                    </mxGeometry>
                </mxCell>
                <mxCell id="hgT8orxahQxK94bdxHds-6" value="SÍ" style="text;strokeColor=none;align=center;fillColor=none;html=1;verticalAlign=middle;whiteSpace=wrap;rounded=0;fontColor=#000066;" parent="1" vertex="1">
                    <mxGeometry x="489.5" y="522" width="30" height="30" as="geometry"/>
                </mxCell>
                <mxCell id="hgT8orxahQxK94bdxHds-7" value="" style="edgeStyle=segmentEdgeStyle;endArrow=classic;html=1;curved=0;rounded=0;endSize=8;startSize=8;entryX=0.5;entryY=1;entryDx=0;entryDy=0;exitX=0;exitY=0.5;exitDx=0;exitDy=0;fontColor=#000066;strokeColor=#000000;" parent="1" source="Y0-RWTtbSj_2u-Xx135a-40" target="Y0-RWTtbSj_2u-Xx135a-15" edge="1">
                    <mxGeometry width="50" height="50" relative="1" as="geometry">
                        <mxPoint x="440.5" y="480" as="sourcePoint"/>
                        <mxPoint x="320.5" y="420" as="targetPoint"/>
                        <Array as="points">
                            <mxPoint x="320.5" y="485"/>
                        </Array>
                    </mxGeometry>
                </mxCell>
                <mxCell id="hgT8orxahQxK94bdxHds-10" value="NO" style="text;strokeColor=none;align=center;fillColor=none;html=1;verticalAlign=middle;whiteSpace=wrap;rounded=0;fontColor=#000066;" parent="1" vertex="1">
                    <mxGeometry x="403" y="457" width="29" height="30" as="geometry"/>
                </mxCell>
                <mxCell id="hgT8orxahQxK94bdxHds-18" value="Hace petición HTTP&amp;nbsp;" style="rounded=1;whiteSpace=wrap;html=1;fillColor=#dae8fc;strokeColor=#6c8ebf;fontColor=#000066;" parent="1" vertex="1">
                    <mxGeometry x="210" y="858.18" width="138" height="50" as="geometry"/>
                </mxCell>
                <mxCell id="hgT8orxahQxK94bdxHds-22" value="" style="edgeStyle=segmentEdgeStyle;endArrow=classic;html=1;curved=0;rounded=0;endSize=8;startSize=8;entryX=1;entryY=0.5;entryDx=0;entryDy=0;exitX=0.5;exitY=0;exitDx=0;exitDy=0;fontColor=#000066;strokeColor=#000000;" parent="1" source="On1AbhgCIfUnlUdx-mSk-48" target="Y0-RWTtbSj_2u-Xx135a-20" edge="1">
                    <mxGeometry width="50" height="50" relative="1" as="geometry">
                        <mxPoint x="210.5" y="530" as="sourcePoint"/>
                        <mxPoint x="150.5" y="445" as="targetPoint"/>
                        <Array as="points">
                            <mxPoint x="240" y="530"/>
                            <mxPoint x="240" y="445"/>
                        </Array>
                    </mxGeometry>
                </mxCell>
                <mxCell id="On1AbhgCIfUnlUdx-mSk-15" value="SÍ" style="text;strokeColor=none;align=center;fillColor=none;html=1;verticalAlign=middle;whiteSpace=wrap;rounded=0;fontColor=#000066;" parent="1" vertex="1">
                    <mxGeometry x="482.13" y="758.18" width="30" height="30" as="geometry"/>
                </mxCell>
                <mxCell id="On1AbhgCIfUnlUdx-mSk-16" value="With Option&lt;br&gt;- - Stats?" style="rhombus;whiteSpace=wrap;html=1;fillColor=#fff2cc;strokeColor=#d6b656;fontColor=#000066;" parent="1" vertex="1">
                    <mxGeometry x="420" y="725.54" width="130" height="94.46" as="geometry"/>
                </mxCell>
                <mxCell id="On1AbhgCIfUnlUdx-mSk-17" value="" style="endArrow=classic;html=1;rounded=0;entryX=0.5;entryY=0;entryDx=0;entryDy=0;fontColor=#000066;strokeColor=#000000;exitX=0.5;exitY=1;exitDx=0;exitDy=0;" parent="1" source="On1AbhgCIfUnlUdx-mSk-16" target="On1AbhgCIfUnlUdx-mSk-35" edge="1">
                    <mxGeometry width="50" height="50" relative="1" as="geometry">
                        <mxPoint x="482.21000000000004" y="808.18" as="sourcePoint"/>
                        <mxPoint x="482.63000000000034" y="858.1800000000001" as="targetPoint"/>
                    </mxGeometry>
                </mxCell>
                <mxCell id="On1AbhgCIfUnlUdx-mSk-25" value="" style="endArrow=classic;html=1;rounded=0;exitX=0.5;exitY=1;exitDx=0;exitDy=0;fontColor=#000066;" parent="1" edge="1">
                    <mxGeometry width="50" height="50" relative="1" as="geometry">
                        <mxPoint x="491.2600000000001" y="1048.18" as="sourcePoint"/>
                        <mxPoint x="492.01" y="1048.18" as="targetPoint"/>
                        <Array as="points"/>
                    </mxGeometry>
                </mxCell>
                <mxCell id="On1AbhgCIfUnlUdx-mSk-29" value="With options:&lt;br&gt;- -Stats &amp;amp; - -Validate" style="rhombus;whiteSpace=wrap;html=1;fillColor=#fff2cc;strokeColor=#d6b656;fontColor=#000066;" parent="1" vertex="1">
                    <mxGeometry x="580.06" y="727.77" width="139.94" height="110" as="geometry"/>
                </mxCell>
                <mxCell id="On1AbhgCIfUnlUdx-mSk-30" value="" style="endArrow=classic;html=1;rounded=0;fontColor=#000066;strokeColor=#000000;entryX=0.5;entryY=0;entryDx=0;entryDy=0;" parent="1" source="On1AbhgCIfUnlUdx-mSk-29" target="On1AbhgCIfUnlUdx-mSk-36" edge="1">
                    <mxGeometry width="50" height="50" relative="1" as="geometry">
                        <mxPoint x="694.08" y="801.4499999999999" as="sourcePoint"/>
                        <mxPoint x="661" y="940" as="targetPoint"/>
                    </mxGeometry>
                </mxCell>
                <mxCell id="On1AbhgCIfUnlUdx-mSk-31" value="" style="endArrow=classic;html=1;rounded=0;entryX=0.5;entryY=0;entryDx=0;entryDy=0;fontColor=#000066;strokeColor=#000000;" parent="1" target="On1AbhgCIfUnlUdx-mSk-29" edge="1">
                    <mxGeometry width="50" height="50" relative="1" as="geometry">
                        <mxPoint x="650" y="700" as="sourcePoint"/>
                        <mxPoint x="659.7" y="725.54" as="targetPoint"/>
                        <Array as="points"/>
                    </mxGeometry>
                </mxCell>
                <mxCell id="On1AbhgCIfUnlUdx-mSk-35" value="&lt;pre style=&quot;box-sizing: border-box; margin-top: 0px; margin-bottom: 0px; overflow-wrap: normal; padding: 16px; overflow: auto; line-height: 1.45; background-color: var(--color-canvas-subtle); border-radius: 6px; word-break: normal; font-size: 10px;&quot;&gt;  Muestra:&amp;nbsp;&lt;br&gt;$ md-links ./some/example.md --stats&lt;br&gt;&lt;font style=&quot;font-size: 11px;&quot; face=&quot;Helvetica&quot;&gt;   Total: 3 &lt;br&gt;&lt;/font&gt;&lt;font style=&quot;font-size: 11px;&quot; face=&quot;Helvetica&quot;&gt;    Unique: 3&lt;/font&gt;&lt;/pre&gt;" style="shape=parallelogram;perimeter=parallelogramPerimeter;whiteSpace=wrap;html=1;fixedSize=1;align=left;fontSize=8;fillColor=#d5e8d4;strokeColor=#82b366;fontColor=#000066;" parent="1" vertex="1">
                    <mxGeometry x="361.75" y="850" width="247.5" height="80" as="geometry"/>
                </mxCell>
                <mxCell id="On1AbhgCIfUnlUdx-mSk-36" value="&lt;pre style=&quot;box-sizing: border-box; margin-top: 0px; margin-bottom: 0px; overflow-wrap: normal; padding: 16px; overflow: auto; line-height: 1.45; background-color: var(--color-canvas-subtle); border-radius: 6px; word-break: normal; font-size: 10px;&quot;&gt;  Muestra:&lt;br style=&quot;font-size: 10px;&quot;&gt;&lt;pre style=&quot;box-sizing: border-box; font-family: ui-monospace, SFMono-Regular, &amp;quot;SF Mono&amp;quot;, Menlo, Consolas, &amp;quot;Liberation Mono&amp;quot;, monospace; margin-top: 0px; margin-bottom: 0px; overflow-wrap: normal; padding: 16px; overflow: auto; line-height: 1.45; background-color: var(--color-canvas-subtle); border-radius: 6px; word-break: normal; font-size: 10px;&quot;&gt;$ md-links ./some/example.md --stats --validate&lt;br style=&quot;font-size: 10px;&quot;&gt;Total: 3&lt;br style=&quot;font-size: 10px;&quot;&gt;Unique: 3&lt;br style=&quot;font-size: 10px;&quot;&gt;&lt;font style=&quot;font-size: 10px;&quot;&gt;Broken: 1&lt;/font&gt;&lt;/pre&gt;&lt;/pre&gt;" style="shape=parallelogram;perimeter=parallelogramPerimeter;whiteSpace=wrap;html=1;fixedSize=1;align=left;fontSize=10;fillColor=#d5e8d4;strokeColor=#82b366;fontColor=#000066;" parent="1" vertex="1">
                    <mxGeometry x="497.47" y="960" width="305.12" height="110" as="geometry"/>
                </mxCell>
                <mxCell id="On1AbhgCIfUnlUdx-mSk-37" value="" style="endArrow=none;html=1;rounded=0;fontColor=#000066;strokeColor=#000000;" parent="1" edge="1">
                    <mxGeometry width="50" height="50" relative="1" as="geometry">
                        <mxPoint x="280" y="700" as="sourcePoint"/>
                        <mxPoint x="650" y="700" as="targetPoint"/>
                    </mxGeometry>
                </mxCell>
                <mxCell id="On1AbhgCIfUnlUdx-mSk-39" value="" style="edgeStyle=segmentEdgeStyle;endArrow=classic;html=1;curved=0;rounded=0;endSize=8;startSize=8;exitX=0.5;exitY=1;exitDx=0;exitDy=0;entryX=0.297;entryY=0.962;entryDx=0;entryDy=0;entryPerimeter=0;fontColor=#000066;strokeColor=#000000;" parent="1" source="On1AbhgCIfUnlUdx-mSk-35" target="Y0-RWTtbSj_2u-Xx135a-20" edge="1">
                    <mxGeometry width="50" height="50" relative="1" as="geometry">
                        <mxPoint x="140" y="1065" as="sourcePoint"/>
                        <mxPoint x="69" y="605" as="targetPoint"/>
                        <Array as="points">
                            <mxPoint x="486" y="1120"/>
                            <mxPoint x="72" y="1120"/>
                        </Array>
                    </mxGeometry>
                </mxCell>
                <mxCell id="On1AbhgCIfUnlUdx-mSk-40" value="" style="edgeStyle=segmentEdgeStyle;endArrow=classic;html=1;curved=0;rounded=0;endSize=8;startSize=8;exitX=0.5;exitY=1;exitDx=0;exitDy=0;fontColor=#000066;strokeColor=#000000;" parent="1" source="On1AbhgCIfUnlUdx-mSk-36" target="Y0-RWTtbSj_2u-Xx135a-20" edge="1">
                    <mxGeometry width="50" height="50" relative="1" as="geometry">
                        <mxPoint x="670" y="1105" as="sourcePoint"/>
                        <mxPoint x="50" y="495" as="targetPoint"/>
                        <Array as="points">
                            <mxPoint x="650" y="1140"/>
                            <mxPoint x="50" y="1140"/>
                        </Array>
                    </mxGeometry>
                </mxCell>
                <mxCell id="On1AbhgCIfUnlUdx-mSk-41" value="&lt;font style=&quot;border-color: var(--border-color); font-size: 9px; text-align: left;&quot;&gt;&lt;br style=&quot;border-color: var(--border-color); font-size: 9px;&quot;&gt;&amp;nbsp; &amp;nbsp; &amp;nbsp;Mostrar Links -&lt;br style=&quot;border-color: var(--border-color); font-size: 9px;&quot;&gt;&amp;nbsp; &amp;nbsp; &amp;nbsp;Devuelve un array de objetos con:&lt;br style=&quot;border-color: var(--border-color); font-size: 9px;&quot;&gt;&lt;/font&gt;&lt;ul style=&quot;border-color: var(--border-color); font-size: 9px; text-align: left;&quot;&gt;&lt;li style=&quot;border-color: var(--border-color); box-sizing: border-box; font-size: 9px;&quot;&gt;&lt;font style=&quot;border-color: var(--border-color); font-size: 9px;&quot; face=&quot;Helvetica&quot;&gt;&lt;code style=&quot;border-color: var(--border-color); box-sizing: border-box; padding: 0.2em 0.4em; margin: 0px; background-color: var(--color-neutral-muted); border-radius: 6px; font-size: 9px;&quot;&gt;href&lt;/code&gt;: URL encontrada.&lt;/font&gt;&lt;/li&gt;&lt;li style=&quot;border-color: var(--border-color); box-sizing: border-box; margin-top: 0.25em; font-size: 9px;&quot;&gt;&lt;font style=&quot;border-color: var(--border-color); font-size: 9px;&quot; face=&quot;Helvetica&quot;&gt;&lt;code style=&quot;border-color: var(--border-color); box-sizing: border-box; padding: 0.2em 0.4em; margin: 0px; background-color: var(--color-neutral-muted); border-radius: 6px; font-size: 9px;&quot;&gt;text&lt;/code&gt;: Texto que aparecía dentro del link (&lt;code style=&quot;border-color: var(--border-color); box-sizing: border-box; padding: 0.2em 0.4em; margin: 0px; background-color: var(--color-neutral-muted); border-radius: 6px; font-size: 9px;&quot;&gt;&amp;lt;a&amp;gt;&lt;/code&gt;).&lt;/font&gt;&lt;/li&gt;&lt;li style=&quot;border-color: var(--border-color); box-sizing: border-box; margin-top: 0.25em; font-size: 9px;&quot;&gt;&lt;font style=&quot;border-color: var(--border-color); font-size: 9px;&quot; face=&quot;Helvetica&quot;&gt;&lt;code style=&quot;border-color: var(--border-color); box-sizing: border-box; padding: 0.2em 0.4em; margin: 0px; background-color: var(--color-neutral-muted); border-radius: 6px; font-size: 9px;&quot;&gt;file&lt;/code&gt;: Ruta del archivo donde se encontró el link.&lt;/font&gt;&lt;/li&gt;&lt;li style=&quot;border-color: var(--border-color); box-sizing: border-box; margin-top: 0.25em; font-size: 9px;&quot;&gt;&lt;font style=&quot;border-color: var(--border-color); font-size: 9px;&quot; face=&quot;Helvetica&quot;&gt;&lt;code style=&quot;border-color: var(--border-color); box-sizing: border-box; padding: 0.2em 0.4em; margin: 0px; background-color: var(--color-neutral-muted); border-radius: 6px; font-size: 9px;&quot;&gt;status&lt;/code&gt;: Código de respuesta HTTP.&lt;/font&gt;&lt;/li&gt;&lt;li style=&quot;border-color: var(--border-color); box-sizing: border-box; margin-top: 0.25em; font-size: 9px;&quot;&gt;&lt;font style=&quot;border-color: var(--border-color); font-size: 9px;&quot; face=&quot;Helvetica&quot;&gt;&lt;code style=&quot;border-color: var(--border-color); box-sizing: border-box; padding: 0.2em 0.4em; margin: 0px; background-color: var(--color-neutral-muted); border-radius: 6px; font-size: 9px;&quot;&gt;ok&lt;/code&gt;: Mensaje&amp;nbsp;&lt;code style=&quot;border-color: var(--border-color); box-sizing: border-box; padding: 0.2em 0.4em; margin: 0px; background-color: var(--color-neutral-muted); border-radius: 6px; font-size: 9px;&quot;&gt;fail&lt;/code&gt;&amp;nbsp;en caso de fallo&amp;nbsp;&lt;/font&gt;&amp;nbsp;u&amp;nbsp;&lt;code style=&quot;background-color: var(--color-neutral-muted); border-color: var(--border-color); box-sizing: border-box; padding: 0.2em 0.4em; margin: 0px; border-radius: 6px; font-size: 9px;&quot;&gt;ok&lt;/code&gt;&lt;span style=&quot;background-color: initial; font-size: 9px;&quot;&gt;&amp;nbsp;en caso de éxito.&lt;/span&gt;&lt;/li&gt;&lt;/ul&gt;" style="shape=parallelogram;perimeter=parallelogramPerimeter;whiteSpace=wrap;html=1;fixedSize=1;fontSize=9;fillColor=#d5e8d4;strokeColor=#82b366;fontColor=#000066;spacing=1;" parent="1" vertex="1">
                    <mxGeometry x="114.37" y="950" width="328.25" height="150" as="geometry"/>
                </mxCell>
                <mxCell id="On1AbhgCIfUnlUdx-mSk-44" value="" style="edgeStyle=segmentEdgeStyle;endArrow=classic;html=1;curved=0;rounded=0;endSize=8;startSize=8;entryX=0.5;entryY=1;entryDx=0;entryDy=0;exitX=0;exitY=0.5;exitDx=0;exitDy=0;fontColor=#000066;strokeColor=#000000;" parent="1" source="Y0-RWTtbSj_2u-Xx135a-60" target="On1AbhgCIfUnlUdx-mSk-48" edge="1">
                    <mxGeometry width="50" height="50" relative="1" as="geometry">
                        <mxPoint x="321.92" y="802" as="sourcePoint"/>
                        <mxPoint x="208.8699999999999" y="675" as="targetPoint"/>
                        <Array as="points">
                            <mxPoint x="224" y="770"/>
                            <mxPoint x="150" y="770"/>
                            <mxPoint x="150" y="670"/>
                            <mxPoint x="240" y="670"/>
                        </Array>
                    </mxGeometry>
                </mxCell>
                <mxCell id="On1AbhgCIfUnlUdx-mSk-48" value="&lt;br style=&quot;border-color: var(--border-color); text-align: left; font-size: 9px;&quot;&gt;&amp;nbsp; &amp;nbsp; &amp;nbsp;Mostrar Links -&lt;br style=&quot;border-color: var(--border-color); text-align: left; font-size: 9px;&quot;&gt;&lt;span style=&quot;text-align: left; font-size: 9px;&quot;&gt;&amp;nbsp; &amp;nbsp; &amp;nbsp;Devuelve un&amp;nbsp;array de objetos con:&lt;/span&gt;&lt;br style=&quot;border-color: var(--border-color); text-align: left; font-size: 9px;&quot;&gt;&lt;ul style=&quot;border-color: var(--border-color); text-align: left; font-size: 9px;&quot;&gt;&lt;li style=&quot;border-color: var(--border-color); font-size: 9px;&quot;&gt;href: Url encontrada.&lt;/li&gt;&lt;li style=&quot;border-color: var(--border-color); font-size: 9px;&quot;&gt;text: Texto que aparecía dentro del link (&amp;lt;a&amp;gt;)&lt;/li&gt;&lt;li style=&quot;border-color: var(--border-color); font-size: 9px;&quot;&gt;file: Ruta del archivo donde se encontró el link&lt;/li&gt;&lt;/ul&gt;" style="shape=parallelogram;perimeter=parallelogramPerimeter;whiteSpace=wrap;html=1;fixedSize=1;fillColor=#d5e8d4;strokeColor=#82b366;fontColor=#000066;fontSize=9;" parent="1" vertex="1">
                    <mxGeometry x="130" y="530" width="220" height="110" as="geometry"/>
                </mxCell>
                <mxCell id="8" value="" style="endArrow=classic;html=1;rounded=0;fontColor=#000066;strokeColor=#000000;exitX=0.5;exitY=1;exitDx=0;exitDy=0;" parent="1" source="hgT8orxahQxK94bdxHds-18" edge="1">
                    <mxGeometry width="50" height="50" relative="1" as="geometry">
                        <mxPoint x="282" y="910" as="sourcePoint"/>
                        <mxPoint x="279" y="950" as="targetPoint"/>
                    </mxGeometry>
                </mxCell>
            </root>
        </mxGraphModel>
    </diagram>
</mxfile>